<svg width="120" height="120" viewBox="0 0 120 120" xmlns="http://www.w3.org/2000/svg">
  <!-- Background circle with gradient -->
  <defs>
    <linearGradient id="logoGradient" x1="0%" y1="0%" x2="100%" y2="100%">
      <stop offset="0%" style="stop-color:#FFD700;stop-opacity:1" />
      <stop offset="100%" style="stop-color:#FF9A3E;stop-opacity:1" />
    </linearGradient>
  </defs>
  
  <!-- Background circle -->
  <circle cx="60" cy="60" r="55" fill="url(#logoGradient)" stroke="#800000" stroke-width="2"/>
  
  <!-- Male dancer silhouette (left) -->
  <path d="M35 45 Q35 35 40 30 Q45 25 50 30 Q55 35 55 45 L55 75 Q55 85 50 90 Q45 95 40 90 Q35 85 35 75 Z" fill="#1A1A1A"/>
  <circle cx="45" cy="25" r="8" fill="#1A1A1A"/>
  <path d="M50 30 L60 20 L65 25" stroke="#1A1A1A" stroke-width="3" fill="none" stroke-linecap="round"/>
  <path d="M40 90 L35 100 L40 105" stroke="#1A1A1A" stroke-width="3" fill="none" stroke-linecap="round"/>
  
  <!-- Female dancer silhouette (right) -->
  <path d="M65 45 Q65 35 70 30 Q75 25 80 30 Q85 35 85 45 L85 75 Q85 85 80 90 Q75 95 70 90 Q65 85 65 75 Z" fill="#1A1A1A"/>
  <circle cx="75" cy="25" r="8" fill="#1A1A1A"/>
  <path d="M70 30 L60 20 L55 25" stroke="#1A1A1A" stroke-width="3" fill="none" stroke-linecap="round"/>
  <path d="M80 90 L85 100 L80 105" stroke="#1A1A1A" stroke-width="3" fill="none" stroke-linecap="round"/>
  
  <!-- Dress flare effect -->
  <path d="M65 75 Q70 85 75 85 Q80 85 85 75" stroke="#1A1A1A" stroke-width="2" fill="none"/>
  
  <!-- Text: "Salsa Club!" -->
  <text x="60" y="115" text-anchor="middle" font-family="Arial, sans-serif" font-size="12" font-weight="bold" fill="#800000">Salsa Club!</text>
</svg>
